# xmcd
#
# Track frame offsets:
#	150
#	13719
#	25985
#	37177
#	50691
#	61415
#	73013
#	85567
#	97300
#	108106
#	123360
#	134558
#	150010
#	166220
#	179822
#
# Disc length: 2643
#
# Revision: 3
# Processed by: cddbd v1.5.1PL0 Copyright (c) Steve Scherf et al.
# Submitted via: audiograbber 1.80.04
# Normalized: r1:DSETVAR1,TDELIM( - ),TSWAP
#
DISCID=cb0a510f
DTITLE=Various Artist - Classic Country, 1970 - 1974, CD-2
DYEAR=1900
DGENRE=Country Classic
TTITLE0=Billy Swan - I Can Help
TTITLE1=Marie Osmond - Paper Roses
TTITLE2=Conway Twitty - Hello Darlin'
TTITLE3=George Jones and Tammy Wynette - We're Gonna' Hold On
TTITLE4=Sonny James - Empty Arms
TTITLE5=Donna Fargo - The Happiest Girl In The Whole U.S.A.
TTITLE6=Charlie Rich - The Most Beautiful Girl
TTITLE7=Sammi Smith - Help Me Through The Night
TTITLE8=Jerry Reed - When You're Hot, You're Hot
TTITLE9=Jeanne Pruett - Satin Sheets
TTITLE10=Loretta Lynn and Conway Twitty - Lead Me On
TTITLE11=Tanya Tucker - Delta Dawn
TTITLE12=Marty Robbins - My Woman, My Woman, My Wife
TTITLE13=Lynn Anderson - Rose Garden
TTITLE14=Johnny Cash - Sunday Morning Coming Down
EXTD=
EXTT0=
EXTT1=
EXTT2=
EXTT3=
EXTT4=
EXTT5=
EXTT6=
EXTT7=
EXTT8=
EXTT9=
EXTT10=
EXTT11=
EXTT12=
EXTT13=
EXTT14=
PLAYORDER=
